<svg xmlns="http://www.w3.org/2000/svg" width="18" height="24" viewBox="0 0 18 24">
  <g fill="#FFFFFF" fill-rule="evenodd">
    <polygon points="0 10.675 0 11.377 11.092 16.442 13.687 15.195 2.045 9.74"/>
    <polygon points="3.933 8.65 3.933 9.351 15.261 14.572 17.778 13.325 5.979 7.714" transform="rotate(-180 10.856 11.143)"/>
    <polygon points="0 4.052 8.889 0 17.778 4.052 17.778 6.623 8.928 2.649 0 6.623"/>
    <polygon points="0 21.429 8.889 17.377 17.778 21.429 17.778 24 8.928 20.026 0 24" transform="matrix(1 0 0 -1 0 41.377)"/>
    <polygon points="0 17.299 8.889 13.247 17.778 17.299 17.778 19.87 8.928 15.896 0 19.87" transform="matrix(1 0 0 -1 0 33.117)"/>
    <polygon points="0 8.182 8.889 4.13 17.778 8.182 17.778 10.753 8.928 6.779 0 10.753"/>
  </g>
</svg>
