<svg xmlns="http://www.w3.org/2000/svg" width="15" height="12" viewBox="0 0 15 12">
  <path fill="#FFFFFF" d="M14.877941,5.685324 C14.939507,5.76446 14.981745,5.854902 14.989978,5.961754 C14.990693,5.973059 14.997852,5.981811 14.997852,5.992752 C14.997852,5.995305 15,5.997493 15,6.00041 C15,6.003328 14.99821,6.005881 14.99821,6.008798 C14.99821,6.015727 14.994631,6.020833 14.994273,6.027397 C14.987472,6.156859 14.938076,6.273193 14.857538,6.363635 C14.850737,6.370929 14.853959,6.382599 14.8468,6.389892 C14.839283,6.397186 14.828187,6.394268 14.821028,6.400468 C14.813869,6.407032 14.802415,6.405574 14.795256,6.411773 L8.928196,11.844098 C8.724168,12.051967 8.392712,12.051967 8.188684,11.844098 C7.984298,11.635864 7.984298,11.299261 8.188684,11.091391 L13.097528,6.544883 L0.535484,6.544883 C0.239822,6.544883 0,6.300545 0,6.000046 C0,5.699182 0.239822,5.454479 0.535484,5.454479 L13.097528,5.454479 L8.188684,0.909065 C7.984298,0.70083 7.984298,0.363863 8.188684,0.155629 C8.392712,-0.051876 8.724168,-0.051876 8.928196,0.155629 L14.765547,5.561331 C14.774137,5.567531 14.778433,5.578107 14.787023,5.584671 C14.805278,5.598894 14.830693,5.593059 14.847158,5.609834 C14.867561,5.631351 14.861834,5.661984 14.877941,5.685324 L14.877941,5.685324 Z"/>
</svg>
