<svg xmlns="http://www.w3.org/2000/svg" width="53" height="54" viewBox="0 0 53 54">
  <g fill="#002CFC" fill-rule="evenodd">
    <path d="M34.9549 48.3939C35.8239 40.3379 32.4109 33.8714 28.8184 27.4629 26.4259 23.1949 23.8844 19.0064 22.3784 14.2984 21.3194 10.9884 20.9919 7.6319 21.5364 4.2114 21.9879 1.3764 24.0594-.1491 27.0664.0114 29.9219.1639 31.3594 1.6099 31.5534 4.5854 31.9079 10.0349 34.0304 14.8639 36.7194 19.5054 39.1674 23.7299 41.9554 27.7764 42.7344 32.7909 43.7149 39.1029 41.0609 44.8284 34.9549 48.3939M17.66305 5.4105C16.93605 13.505 20.35205 20.031 23.99455 26.5025 27.12455 32.0625 30.54405 37.508 31.31255 44.0635 31.51755 45.813 31.54655 47.5365 31.21155 49.271 30.61105 52.38 28.69905 53.9445 25.66105 53.772 22.66455 53.6025 21.25205 52.0695 21.05655 48.7245 20.74155 43.341 18.48905 38.6465 15.87105 34.0835 14.01605 30.8505 11.89505 27.758 10.72155 24.1705 8.21655 16.5125 10.64905 9.6175 17.66305 5.4105M46.08175 37.0347C47.29325 31.7477 45.23375 27.2382 42.75575 22.8452 40.92225 19.5957 38.93775 16.4292 37.18075 13.1397 35.88725 10.7177 35.07175 8.1002 35.66875 4.7332 37.34575 6.6162 38.96625 8.5532 40.71325 10.3682 43.30775 13.0637 45.99575 15.6677 48.63625 18.3187 53.90025 23.6047 53.91025 29.7207 48.71075 34.9782 47.95975 35.7377 47.36625 36.6527 46.69975 37.4962L46.08175 37.0347zM6.68415 16.3127C5.32015 23.0387 8.16315 28.1627 11.19765 33.2372 13.40715 36.9322 15.83565 40.5297 16.75015 44.8397 16.96315 45.8432 17.01715 46.8802 17.14365 47.8952 12.15665 43.0652 7.00715 38.6052 2.51115 33.5627-1.35635 29.2252-.57235 23.2837 3.59965 19.1947 4.47515 18.3367 5.39015 17.5192 6.68415 16.3127"/>
  </g>
</svg>
