<svg xmlns="http://www.w3.org/2000/svg" width="80" height="108" viewBox="0 0 80 108">
  <g fill="#231F20" fill-rule="evenodd">
    <polygon points="0 48.039 0 51.195 49.912 73.987 61.593 68.377 9.204 43.831"/>
    <polygon points="17.699 38.922 17.699 42.078 68.673 65.571 80 59.961 26.903 34.714" transform="rotate(-180 48.85 50.143)"/>
    <polygon points="0 18.234 40 0 80 18.234 80 29.805 40.177 11.922 0 29.805"/>
    <polygon points="0 96.429 40 78.195 80 96.429 80 108 40.177 90.117 0 108" transform="matrix(1 0 0 -1 0 186.195)"/>
    <polygon points="0 77.844 40 59.61 80 77.844 80 89.416 40.177 71.532 0 89.416" transform="matrix(1 0 0 -1 0 149.026)"/>
    <polygon points="0 36.818 40 18.584 80 36.818 80 48.39 40.177 30.506 0 48.39"/>
  </g>
</svg>
