<svg xmlns="http://www.w3.org/2000/svg" width="11" height="273" viewBox="0 0 11 273">
  <g fill="none" fill-rule="evenodd">
    <path fill="#333333" fill-rule="nonzero" d="M-64,72.1828367 C-64,74.1482192 -62.6952727,75.4490478 -60.7098182,75.4490478 C-58.7527272,75.4490478 -57.4338182,73.950267 -57.4338182,72.1404184 L-57.4338182,65.2120917 L-59.3909091,65.2120917 L-59.3909091,72.1404184 C-59.3909091,73.0170638 -59.9014545,73.5967809 -60.724,73.5967809 C-61.5181818,73.5967809 -62.0996363,73.1301793 -62.1138182,72.098 L-62.1138182,71.1789363 L-64,71.5182829 L-64,72.1828367 Z M-51.6214545,70.2174542 C-51.6214545,72.479765 -50.0330909,73.5543626 -48.4872727,73.5543626 C-46.9272727,73.5543626 -45.3389091,72.479765 -45.3389091,70.2174542 C-45.3389091,67.9551435 -46.9272727,66.8805459 -48.4872727,66.8805459 C-50.0330909,66.8805459 -51.6214545,67.9551435 -51.6214545,70.2174542 Z M-53.6494545,70.2315937 C-53.6494545,66.9936614 -51.2101818,65 -48.4872727,65 C-45.7501818,65 -43.3109091,66.9936614 -43.3109091,70.2315937 C-43.3109091,73.4553865 -45.7501818,75.4490478 -48.4872727,75.4490478 C-51.2101818,75.4490478 -53.6494545,73.4553865 -53.6494545,70.2315937 Z M-30.8472727,75.2369562 L-30.8472727,65.2120917 L-32.8043636,65.2120917 L-32.8043636,71.8434901 L-36.988,65.2120917 L-39.4272727,65.2120917 L-39.4272727,75.2369562 L-37.4701818,75.2369562 L-37.4701818,68.1248168 L-32.9036363,75.2369562 L-30.8472727,75.2369562 Z M-19.5465454,75.2369562 L-20.3832727,72.9463666 L-24.4676363,72.9463666 L-25.3043636,75.2369562 L-27.3749091,75.2369562 L-23.5174545,65.2120917 L-21.2483636,65.2120917 L-17.4192727,75.2369562 L-19.5465454,75.2369562 Z M-22.4254545,67.3754263 L-23.8152727,71.1647969 L-21.0356363,71.1647969 L-22.4254545,67.3754263 Z M-7.46581815,67.0643586 L-7.46581815,65.2120917 L-15.7905454,65.2120917 L-15.7905454,67.0643586 L-12.6138182,67.0643586 L-12.6138182,75.2369562 L-10.6425454,75.2369562 L-10.6425454,67.0643586 L-7.46581815,67.0643586 Z M4.40218185,75.2369562 L4.40218185,65.2120917 L2.43090912,65.2120917 L2.43090912,69.2418327 L-1.9512727,69.2418327 L-1.9512727,65.2120917 L-3.90836361,65.2120917 L-3.90836361,75.2369562 L-1.9512727,75.2369562 L-1.9512727,71.0799602 L2.43090912,71.0799602 L2.43090912,75.2369562 L4.40218185,75.2369562 Z M15.7029091,75.2369562 L14.8661818,72.9463666 L10.7818182,72.9463666 L9.9450909,75.2369562 L7.87454548,75.2369562 L11.732,65.2120917 L14.0010909,65.2120917 L17.8301818,75.2369562 L15.7029091,75.2369562 Z M12.824,67.3754263 L11.4341818,71.1647969 L14.2138182,71.1647969 L12.824,67.3754263 Z M29.8825455,75.2369562 L29.8825455,65.2120917 L27.9254546,65.2120917 L27.9254546,71.8434901 L23.7418182,65.2120917 L21.3025455,65.2120917 L21.3025455,75.2369562 L23.2596364,75.2369562 L23.2596364,68.1248168 L27.8261818,75.2369562 L29.8825455,75.2369562 Z M41.1265455,67.6016574 C40.8996364,66.470502 39.9636364,65 37.5243637,65 C35.624,65 34.0214546,66.3573865 34.0214546,68.1389562 C34.0214546,69.6518765 35.0567273,70.6840558 36.6592728,71.009263 L38.0632728,71.2920518 C38.8432728,71.4475857 39.2829091,71.9000478 39.2829091,72.479765 C39.2829091,73.1867371 38.7014546,73.7098965 37.652,73.7098965 C36.2338182,73.7098965 35.5389091,72.8191116 35.4538182,71.8293506 L33.6385455,72.3100917 C33.7945455,73.7381753 34.9716364,75.4490478 37.6378182,75.4490478 C39.9778182,75.4490478 41.2683637,73.8937092 41.2683637,72.35251 C41.2683637,70.9385658 40.2898182,69.7508526 38.4603637,69.3973666 L37.0563637,69.1287172 C36.3189091,68.9873228 35.9643637,68.549 35.9643637,67.9975618 C35.9643637,67.333008 36.5883637,66.725012 37.5385455,66.725012 C38.8149091,66.725012 39.2687273,67.587518 39.368,68.1389562 L41.1265455,67.6016574 Z M47.0807273,69.7791315 L48.6265455,69.7791315 C49.6050909,69.7791315 50.2007273,69.2135538 50.2007273,68.3510478 C50.2007273,67.460263 49.6050909,66.9088247 48.6265455,66.9088247 L47.0807273,66.9088247 L47.0807273,69.7791315 Z M48.8676364,71.4617251 L47.0665455,71.4617251 L47.0665455,75.2369562 L45.1094546,75.2369562 L45.1094546,65.2120917 L48.8676364,65.2120917 C50.8530909,65.2120917 52.172,66.5270598 52.172,68.3369084 C52.172,70.1608965 50.8530909,71.4617251 48.8676364,71.4617251 Z M62.1396364,75.2369562 L62.1396364,73.3988287 L57.8,73.3988287 L57.8,71.0799602 L61.7283637,71.0799602 L61.7283637,69.3408088 L57.8,69.3408088 L57.8,67.0502192 L62.1396364,67.0502192 L62.1396364,65.2120917 L55.8429091,65.2120917 L55.8429091,75.2369562 L62.1396364,75.2369562 Z M74.5890909,75.2369562 L74.5890909,65.2120917 L72.6178182,65.2120917 L72.6178182,69.2418327 L68.2356364,69.2418327 L68.2356364,65.2120917 L66.2785455,65.2120917 L66.2785455,75.2369562 L68.2356364,75.2369562 L68.2356364,71.0799602 L72.6178182,71.0799602 L72.6178182,75.2369562 L74.5890909,75.2369562 Z" transform="rotate(-90 5.295 70.225)"/>
    <path stroke="#333333" d="M5,151 L5,272.836154"/>
  </g>
</svg>
